<?xml version="1.0" encoding="utf-8"?>
<!-- Generator: Adobe Illustrator 23.0.6, SVG Export Plug-In . SVG Version: 6.00 Build 0)  -->
<svg version="1.1" id="artwork" xmlns="http://www.w3.org/2000/svg" xmlns:xlink="http://www.w3.org/1999/xlink" x="0px" y="0px"
	 viewBox="0 0 135 40" style="enable-background:new 0 0 135 40;" xml:space="preserve">
<style type="text/css">
	.st0{fill:#A6A6A6;}
	.st1{fill:#FFFFFF;}
</style>
<g>
	<g>
		<path d="M130,40H5c-2.8,0-5-2.2-5-5V5c0-2.8,2.2-5,5-5h125c2.8,0,5,2.2,5,5v30C135,37.7,132.8,40,130,40z"/>
	</g>
	<g>
		<path class="st0" d="M130,0.8c2.3,0,4.2,1.9,4.2,4.2v30c0,2.3-1.9,4.2-4.2,4.2H5c-2.3,0-4.2-1.9-4.2-4.2V5c0-2.3,1.9-4.2,4.2-4.2
			L130,0.8 M130,0H5C2.2,0,0,2.2,0,5v30c0,2.8,2.2,5,5,5h125c2.8,0,5-2.2,5-5V5C135,2.2,132.8,0,130,0L130,0z"/>
	</g>
	<g>
		<path class="st1" d="M41.3,13V7h1.8c0.9,0,1.7,0.3,2.2,0.8c0.6,0.6,0.8,1.3,0.8,2.2c0,0.9-0.3,1.6-0.8,2.2
			C44.7,12.8,44,13,43.1,13H41.3z M42.1,12.3h1.1c0.7,0,1.2-0.2,1.6-0.6c0.4-0.4,0.6-1,0.6-1.7s-0.2-1.3-0.6-1.7
			c-0.4-0.4-1-0.6-1.6-0.6h-1.1V12.3z"/>
		<path class="st1" d="M43.1,13.1h-1.9V6.9h1.9c0.9,0,1.7,0.3,2.3,0.8c0.6,0.6,0.8,1.3,0.8,2.3c0,0.9-0.3,1.6-0.8,2.3
			C44.8,12.8,44.1,13.1,43.1,13.1z M41.4,12.9h1.7c1,0,1.6-0.2,2.1-0.8c0.5-0.6,0.8-1.3,0.8-2.1c0-1-0.2-1.6-0.8-2.1
			c-0.5-0.5-1.3-0.8-2.1-0.8h-1.7V12.9z M43.2,12.4H42V7.6h1.2c0.7,0,1.3,0.2,1.7,0.6c0.4,0.4,0.6,1,0.6,1.8s-0.2,1.4-0.6,1.8
			C44.4,12.2,43.9,12.4,43.2,12.4z M42.2,12.2h1c0.7,0,1.1-0.2,1.5-0.6c0.4-0.4,0.6-0.9,0.6-1.6s-0.2-1.3-0.6-1.6
			c-0.4-0.4-0.9-0.6-1.5-0.6h-1V12.2z"/>
	</g>
	<g>
		<path class="st1" d="M47.3,13V7h0.8v6H47.3z"/>
		<path class="st1" d="M48.2,13.1h-1V6.9h1V13.1z M47.4,12.9H48V7.1h-0.6V12.9z"/>
	</g>
	<g>
		<path class="st1" d="M51.1,13.1c-0.4,0-0.9-0.1-1.3-0.4c-0.4-0.3-0.7-0.7-0.8-1.2l0.7-0.3c0.1,0.3,0.3,0.6,0.5,0.8
			c0.3,0.2,0.6,0.3,0.9,0.3c0.3,0,0.6-0.1,0.9-0.3c0.2-0.2,0.4-0.4,0.4-0.7c0-0.3-0.1-0.6-0.4-0.8c-0.2-0.2-0.6-0.4-1.1-0.5
			c-0.5-0.2-0.9-0.4-1.2-0.6c-0.3-0.3-0.4-0.6-0.4-1s0.2-0.8,0.5-1.1c0.3-0.3,0.8-0.5,1.3-0.5s0.9,0.1,1.2,0.4s0.5,0.5,0.6,0.8
			l-0.7,0.3c-0.1-0.2-0.2-0.4-0.4-0.5c-0.2-0.2-0.5-0.2-0.8-0.2s-0.5,0.1-0.8,0.2C50,8,49.9,8.2,49.9,8.4S50,8.8,50.2,9
			s0.5,0.3,0.9,0.4c0.3,0.1,0.5,0.2,0.7,0.3c0.2,0.1,0.4,0.2,0.6,0.4c0.2,0.1,0.4,0.3,0.5,0.6c0.1,0.2,0.2,0.5,0.2,0.8
			s-0.1,0.6-0.2,0.8s-0.3,0.4-0.5,0.5S52,13,51.8,13.1C51.6,13.1,51.4,13.1,51.1,13.1z"/>
		<path class="st1" d="M51.8,13.2h-0.7c-0.3,0-0.9-0.1-1.4-0.4c-0.5-0.3-0.7-0.8-0.8-1.3l0-0.1l0.9-0.4l0,0.1
			c0.1,0.3,0.3,0.6,0.5,0.8c0.5,0.4,1.1,0.4,1.7,0c0.2-0.2,0.4-0.4,0.4-0.6c0-0.3-0.1-0.6-0.4-0.7c-0.2-0.2-0.5-0.4-1.1-0.5
			c-0.5-0.2-0.9-0.4-1.2-0.6c-0.3-0.3-0.4-0.6-0.4-1.1c0-0.4,0.2-0.8,0.5-1.2c0.3-0.3,0.9-0.5,1.4-0.5c0.6,0,1,0.1,1.3,0.4
			C52.7,7.4,52.9,7.6,53,8l0,0.1l-0.9,0.4l0-0.1C52,8.2,51.9,8,51.8,7.9l0,0c-0.2-0.2-0.4-0.2-0.7-0.2c-0.2,0-0.4,0.1-0.6,0.1
			c0,0-0.1,0-0.2,0.1C50.1,8.1,50,8.2,50,8.4c0,0.2,0.1,0.3,0.3,0.5c0.2,0.2,0.4,0.3,0.9,0.4c0.3,0.1,0.5,0.2,0.7,0.3
			c0.2,0.1,0.4,0.2,0.6,0.4c0.2,0.1,0.4,0.4,0.5,0.7c0.1,0.1,0.2,0.4,0.2,0.8c0,0.4-0.1,0.7-0.2,0.8c-0.1,0.2-0.3,0.4-0.5,0.5
			L51.8,13.2z M49.1,11.6c0.1,0.4,0.4,0.8,0.7,1.1c0.4,0.3,1,0.4,1.2,0.4h0.7l0.6-0.3c0.2-0.1,0.4-0.3,0.5-0.5
			c0.1-0.2,0.2-0.5,0.2-0.8c0-0.2-0.1-0.5-0.2-0.8c-0.1-0.3-0.3-0.5-0.5-0.6l0,0C52.1,10,52,9.9,51.8,9.8c-0.2-0.1-0.4-0.2-0.7-0.3
			c-0.4-0.1-0.7-0.2-0.9-0.4c-0.2-0.2-0.3-0.4-0.3-0.7s0.1-0.5,0.3-0.7l0,0c0.1,0,0.1,0,0.2-0.1c0.2-0.1,0.4-0.1,0.7-0.1
			c0.3,0,0.6,0,0.9,0.2C52,7.8,52.2,8,52.2,8.2l0.5-0.2c-0.1-0.2-0.3-0.4-0.5-0.7C52,7,51.6,6.9,51.1,6.9c-0.5,0-0.9,0.2-1.2,0.5
			c-0.3,0.3-0.5,0.7-0.5,1c0,0.4,0.1,0.7,0.4,0.9c0.3,0.2,0.7,0.4,1.2,0.6c0.5,0.1,0.9,0.3,1.1,0.5c0.3,0.2,0.4,0.5,0.4,0.9
			c0,0.3-0.2,0.6-0.4,0.8c-0.7,0.4-1.3,0.4-1.9,0c-0.2-0.2-0.4-0.5-0.5-0.8L49.1,11.6z"/>
	</g>
	<g>
		<path class="st1" d="M55,13h-0.8V7h2c0.5,0,0.9,0.2,1.3,0.5s0.6,0.8,0.6,1.3s-0.2,0.9-0.6,1.3c-0.4,0.3-0.8,0.5-1.3,0.5H55V13z
			 M55,9.8h1.3c0.3,0,0.6-0.1,0.8-0.3c0.2-0.2,0.3-0.5,0.3-0.7c0-0.3-0.1-0.5-0.3-0.7c-0.2-0.2-0.5-0.3-0.8-0.3H55V9.8z"/>
		<path class="st1" d="M55.1,13.1h-1V6.9h2.1c0.6,0,1,0.3,1.4,0.5c0.4,0.3,0.6,0.8,0.6,1.4c0,0.5-0.2,0.9-0.6,1.4
			c-0.3,0.3-0.8,0.5-1.4,0.5h-1.1V13.1z M54.3,12.9h0.6v-2.4h1.3c0.4,0,0.8-0.1,1.2-0.5C57.8,9.6,58,9.3,58,8.8c0-0.5-0.2-1-0.6-1.2
			c-0.4-0.3-0.8-0.5-1.2-0.5h-1.9V12.9z M56.3,9.9h-1.4V7.7h1.4c0.3,0,0.7,0.1,0.9,0.3c0.2,0.2,0.3,0.5,0.3,0.8
			c0,0.2-0.1,0.5-0.3,0.8C57,9.8,56.6,9.9,56.3,9.9z M55.1,9.7h1.2c0.3,0,0.6-0.1,0.7-0.3c0.2-0.2,0.3-0.5,0.3-0.6
			c0-0.3-0.1-0.4-0.3-0.6c-0.2-0.2-0.4-0.3-0.7-0.3h-1.2V9.7z"/>
	</g>
	<g>
		<path class="st1" d="M64,12.2c-0.6,0.6-1.3,0.9-2.2,0.9c-0.9,0-1.6-0.3-2.2-0.9s-0.9-1.3-0.9-2.2c0-0.9,0.3-1.6,0.9-2.2
			s1.3-0.9,2.2-0.9c0.9,0,1.6,0.3,2.2,0.9s0.9,1.3,0.9,2.2S64.6,11.6,64,12.2z M60.2,11.7c0.4,0.4,1,0.7,1.6,0.7s1.2-0.2,1.6-0.7
			c0.4-0.4,0.7-1,0.7-1.7s-0.2-1.3-0.7-1.7c-0.4-0.4-1-0.7-1.6-0.7s-1.2,0.2-1.6,0.7c-0.4,0.4-0.7,1-0.7,1.7S59.8,11.3,60.2,11.7z"
			/>
		<path class="st1" d="M61.8,13.2c-0.9,0-1.6-0.3-2.3-0.9s-0.9-1.4-0.9-2.3c0-0.9,0.3-1.6,0.9-2.3s1.4-0.9,2.3-0.9
			c0.9,0,1.6,0.3,2.3,0.9S65,9.1,65,10c0,0.9-0.3,1.6-0.9,2.3S62.7,13.2,61.8,13.2z M61.8,7c-0.9,0-1.5,0.3-2.1,0.9
			c-0.6,0.6-0.9,1.3-0.9,2.1c0,0.9,0.3,1.5,0.9,2.1c0.6,0.6,1.3,0.9,2.1,0.9c0.9,0,1.5-0.3,2.1-0.9c0.6-0.6,0.9-1.3,0.9-2.1
			c0-0.9-0.3-1.5-0.9-2.1C63.3,7.3,62.7,7,61.8,7z M61.8,12.5c-0.6,0-1.2-0.3-1.7-0.7l0,0l0,0c-0.5-0.5-0.7-1.1-0.7-1.8
			c0-0.7,0.3-1.3,0.7-1.8c0.4-0.5,1-0.7,1.7-0.7c0.6,0,1.2,0.3,1.7,0.7c0.5,0.4,0.7,1,0.7,1.8c0,0.7-0.3,1.3-0.7,1.8
			C63.1,12.2,62.5,12.5,61.8,12.5z M61.8,7.7c-0.6,0-1.2,0.2-1.5,0.7c-0.4,0.4-0.7,1-0.7,1.6c0,0.6,0.2,1.2,0.7,1.6l0,0
			c0.4,0.4,1,0.7,1.5,0.7c0.6,0,1.2-0.2,1.5-0.7c0.4-0.4,0.7-1,0.7-1.6c0-0.7-0.2-1.3-0.7-1.6C62.9,8,62.3,7.7,61.8,7.7z"/>
	</g>
	<g>
		<path class="st1" d="M66,13V7h0.9l2.9,4.7l0,0v-1.2V7h0.8v6h-0.8l-3.1-4.9l0,0v1.2V13C66.7,13,66,13,66,13z"/>
		<path class="st1" d="M70.7,13.1h-1l0,0l-2.9-4.6v4.7h-0.9V6.9H67l2.7,4.4V6.9h1V13.1z M69.9,12.9h0.6V7.1h-0.6v5l-3.1-5h-0.7v5.8
			h0.5V7.8L69.9,12.9z"/>
	</g>
	<g>
		<path class="st1" d="M72,13V7h0.8v6H72z M72.7,6.5H72l0.4-1.1h0.8L72.7,6.5z"/>
		<path class="st1" d="M72.9,13.1h-1V6.9h1V13.1z M72.1,12.9h0.6V7.1h-0.6V12.9z M72.8,6.6h-0.9l0.5-1.3h1L72.8,6.6z M72.1,6.4h0.5
			L73,5.5h-0.6L72.1,6.4z"/>
	</g>
	<g>
		<path class="st1" d="M75.6,13l-2.1-6h0.9l1.6,4.9l0,0L77.7,7h0.9l-2.2,6H75.6z"/>
		<path class="st1" d="M76.5,13.1h-0.9l-2.2-6.2h1.1l1.5,4.7l1.6-4.7h1.1l0,0.1L76.5,13.1z M75.7,12.9h0.7l2.1-5.8h-0.7L76,12.2
			l-1.7-5.1h-0.7L75.7,12.9z"/>
	</g>
	<g>
		<path class="st1" d="M83,7.7h-2.7v1.9h2.5v0.7h-2.5v2H83V13h-3.5V7H83V7.7z"/>
		<path class="st1" d="M83.1,13.1h-3.7V6.9h3.7v0.9h-2.7v1.7h2.5v0.9h-2.5v1.8h2.7V13.1z M79.6,12.9h3.3v-0.5h-2.7v-2.2h2.5V9.7
			h-2.5V7.6h2.7V7.1h-3.3V12.9z"/>
	</g>
	<g>
		<path class="st1" d="M84.2,13V7H85v5.3h2.6V13H84.2z"/>
		<path class="st1" d="M87.7,13.1h-3.6V6.9h1v5.3h2.6V13.1z M84.3,12.9h3.2v-0.5h-2.6V7.1h-0.6V12.9z"/>
	</g>
	<g>
		<path class="st1" d="M90.6,13V7h0.9l2.9,4.7l0,0v-1.2V7h0.8v6h-0.8l-3.1-4.9l0,0v1.2V13H90.6z"/>
		<path class="st1" d="M95.3,13.1h-1l0,0l-2.9-4.6v4.7h-0.9V6.9h1.1l2.7,4.4V6.9h1V13.1z M94.5,12.9h0.6V7.1h-0.6v5l-3.1-5h-0.7v5.8
			h0.5V7.8L94.5,12.9z"/>
	</g>
	<g>
		<path class="st1" d="M99.3,6.8H98l-2,6.3h1.1l0.6-1.8h2l0.6,1.8h1.1L99.3,6.8z M97.9,10.5l0.5-1.6c0.1-0.5,0.2-0.9,0.3-1.2
			C98.9,8.3,99,8.8,99,8.9l0.5,1.6H97.9z"/>
	</g>
	<g>
		<path class="st1" d="M25.3,18.8c0-2.9,2.4-4.3,2.5-4.4c-1.4-2-3.5-2.3-4.2-2.3c-1.8-0.2-3.5,1.1-4.4,1.1s-2.3-1-3.8-1
			c-1.9,0-3.8,1.2-4.8,2.9c-2.1,3.6-0.5,8.8,1.4,11.7c1,1.4,2.1,3,3.6,2.9s2-0.9,3.8-0.9s2.3,0.9,3.8,0.9c1.6,0,2.6-1.4,3.5-2.8
			c1.1-1.6,1.6-3.2,1.6-3.3C28.4,23.5,25.3,22.3,25.3,18.8L25.3,18.8z M22.4,10.2c0.8-1,1.3-2.3,1.2-3.7c-1.2,0.1-2.6,0.8-3.4,1.8
			c-0.7,0.9-1.4,2.3-1.2,3.6C20.2,12,21.6,11.2,22.4,10.2L22.4,10.2z"/>
	</g>
	<g>
		<path class="st1" d="M51.5,29.9h-2.2L48,26.1h-4.2l-1.2,3.8h-2.2l4.2-13h2.6L51.5,29.9L51.5,29.9z M47.7,24.5l-1.1-3.4
			c-0.1-0.3-0.3-1.2-0.7-2.5l0,0c-0.1,0.6-0.3,1.4-0.6,2.5l-1.1,3.4H47.7z M62.2,25.1c0,1.6-0.4,2.9-1.3,3.8
			c-0.8,0.8-1.7,1.2-2.9,1.2c-1.2,0-2.1-0.4-2.7-1.3v4.9h-2.1V23.6c0-1,0-2-0.1-3.1H55l0.1,1.5l0,0c0.7-1.1,1.8-1.7,3.2-1.7
			c1.1,0,2,0.4,2.8,1.3S62.2,23.7,62.2,25.1L62.2,25.1z M60.1,25.2c0-0.9-0.2-1.7-0.6-2.3C59,22.3,58.4,22,57.7,22
			c-0.5,0-1,0.2-1.4,0.5s-0.7,0.8-0.8,1.3c-0.1,0.2-0.1,0.4-0.1,0.6V26c0,0.7,0.2,1.3,0.6,1.7c0.4,0.5,1,0.7,1.6,0.7
			c0.8,0,1.4-0.3,1.8-0.9C59.9,27,60.1,26.2,60.1,25.2z M73,25.1c0,1.6-0.4,2.9-1.3,3.8c-0.8,0.8-1.7,1.2-2.9,1.2
			c-1.2,0-2.1-0.4-2.7-1.3v4.9H64V23.6c0-1,0-2-0.1-3.1h1.8l0.1,1.5l0,0c0.7-1.1,1.8-1.7,3.2-1.7c1.1,0,2,0.4,2.8,1.3
			C72.7,22.5,73,23.7,73,25.1L73,25.1z M70.9,25.2c0-0.9-0.2-1.7-0.6-2.3c-0.5-0.6-1.1-0.9-1.8-0.9c-0.5,0-1,0.2-1.4,0.5
			s-0.7,0.8-0.8,1.3c-0.1,0.3-0.1,0.5-0.1,0.6V26c0,0.7,0.2,1.3,0.6,1.7c0.4,0.5,1,0.7,1.6,0.7c0.8,0,1.4-0.3,1.8-0.9
			C70.7,27,70.9,26.2,70.9,25.2z M85.1,26.3c0,1.1-0.4,2-1.2,2.7c-0.8,0.8-2,1.1-3.5,1.1c-1.4,0-2.5-0.3-3.4-0.8l0.5-1.7
			c0.9,0.5,1.9,0.8,3,0.8c0.8,0,1.4-0.2,1.8-0.5c0.4-0.4,0.7-0.8,0.7-1.4c0-0.5-0.2-1-0.5-1.3c-0.4-0.4-1-0.7-1.8-1
			c-2.3-0.9-3.4-2.1-3.4-3.7c0-1.1,0.4-1.9,1.2-2.6c0.8-0.7,1.9-1,3.2-1c1.2,0,2.2,0.2,3,0.6l-0.5,1.7c-0.7-0.4-1.6-0.6-2.5-0.6
			c-0.7,0-1.3,0.2-1.7,0.5c-0.3,0.3-0.5,0.7-0.5,1.2s0.2,0.9,0.6,1.3c0.3,0.3,1,0.6,1.9,1c1.1,0.5,1.9,1,2.5,1.6
			C84.9,24.6,85.1,25.4,85.1,26.3L85.1,26.3z M92,22.1h-2.3v4.6c0,1.2,0.4,1.7,1.2,1.7c0.4,0,0.7,0,0.9-0.1l0.1,1.6
			c-0.4,0.2-1,0.2-1.6,0.2c-0.8,0-1.5-0.3-1.9-0.8c-0.5-0.5-0.7-1.3-0.7-2.5v-4.7h-1.4v-1.6h1.4v-1.7l2.1-0.6v2.3h2.3L92,22.1
			L92,22.1z M102.4,25.1c0,1.4-0.4,2.6-1.2,3.6c-0.9,1-2,1.4-3.4,1.4s-2.5-0.5-3.3-1.4s-1.2-2.1-1.2-3.5c0-1.5,0.4-2.6,1.3-3.6
			c0.8-0.9,2-1.4,3.4-1.4s2.5,0.5,3.3,1.4C102,22.6,102.4,23.7,102.4,25.1L102.4,25.1z M100.2,25.2c0-0.9-0.2-1.6-0.6-2.2
			c-0.4-0.7-1.1-1.1-1.9-1.1s-1.5,0.4-1.9,1.1c-0.4,0.6-0.6,1.4-0.6,2.3c0,0.9,0.2,1.6,0.6,2.2c0.5,0.7,1.1,1.1,1.9,1.1
			s1.4-0.4,1.9-1.1C100,26.8,100.2,26,100.2,25.2L100.2,25.2z M109.2,22.4c-0.2,0-0.4-0.1-0.7-0.1c-0.7,0-1.3,0.3-1.7,0.8
			c-0.3,0.5-0.5,1.1-0.5,1.9v4.9h-2.1v-6.4c0-1,0-2-0.1-3h1.8l0.1,1.8h0.1c0.2-0.6,0.6-1.1,1-1.5c0.4-0.3,1-0.5,1.5-0.5
			c0.2,0,0.4,0,0.5,0L109.2,22.4L109.2,22.4z M118.5,24.8c0,0.3,0,0.6-0.1,0.9h-6.3c0,0.9,0.3,1.6,0.9,2.1c0.5,0.4,1.2,0.7,2,0.7
			c0.9,0,1.8-0.1,2.5-0.4l0.3,1.4c-0.9,0.4-1.9,0.6-3.1,0.6c-1.5,0-2.6-0.4-3.4-1.3c-0.8-0.9-1.2-2-1.2-3.4s0.4-2.6,1.2-3.5
			c0.8-1,1.9-1.5,3.3-1.5s2.4,0.5,3.1,1.5C118.3,22.6,118.5,23.6,118.5,24.8L118.5,24.8z M116.5,24.2c0-0.6-0.1-1.2-0.4-1.6
			c-0.4-0.6-0.9-0.9-1.7-0.9c-0.7,0-1.2,0.3-1.7,0.9c-0.3,0.5-0.6,1-0.6,1.6H116.5L116.5,24.2z"/>
	</g>
</g>
</svg>
