<?xml version="1.0" encoding="utf-8"?>
<!-- Generator: Adobe Illustrator 23.0.6, SVG Export Plug-In . SVG Version: 6.00 Build 0)  -->
<svg version="1.1" id="artwork" xmlns="http://www.w3.org/2000/svg" xmlns:xlink="http://www.w3.org/1999/xlink" x="0px" y="0px"
	 viewBox="0 0 135 40" style="enable-background:new 0 0 135 40;" xml:space="preserve">
<style type="text/css">
	.st0{fill:#A6A6A6;}
	.st1{fill:#FFFFFF;}
	.st2{fill:url(#SVGID_1_);}
	.st3{fill:url(#SVGID_2_);}
	.st4{fill:url(#SVGID_3_);}
	.st5{fill:url(#SVGID_4_);}
	.st6{opacity:0.2;enable-background:new    ;}
	.st7{opacity:0.12;enable-background:new    ;}
	.st8{opacity:0.25;fill:#FFFFFF;enable-background:new    ;}
</style>
<g>
	<path d="M130,40H5c-2.8,0-5-2.2-5-5V5c0-2.8,2.2-5,5-5h125c2.8,0,5,2.2,5,5v30C135,37.7,132.8,40,130,40z"/>
	<path class="st0" d="M130,0.8c2.3,0,4.2,1.9,4.2,4.2v30c0,2.3-1.9,4.2-4.2,4.2H5c-2.3,0-4.2-1.9-4.2-4.2V5c0-2.3,1.9-4.2,4.2-4.2
		H130 M130,0H5C2.2,0,0,2.2,0,5v30c0,2.8,2.2,5,5,5h125c2.8,0,5-2.2,5-5V5C135,2.3,132.8,0,130,0L130,0z"/>
	<path class="st1" d="M68.1,21.8c-2.4,0-4.3,1.8-4.3,4.3c0,2.4,1.9,4.3,4.3,4.3s4.3-1.8,4.3-4.3C72.4,23.5,70.5,21.8,68.1,21.8z
		 M68.1,28.6c-1.3,0-2.4-1.1-2.4-2.6s1.1-2.6,2.4-2.6s2.4,1,2.4,2.6C70.5,27.5,69.4,28.6,68.1,28.6z M58.8,21.8
		c-2.4,0-4.3,1.8-4.3,4.3c0,2.4,1.9,4.3,4.3,4.3s4.3-1.8,4.3-4.3C63.1,23.5,61.2,21.8,58.8,21.8z M58.8,28.6c-1.3,0-2.4-1.1-2.4-2.6
		s1.1-2.6,2.4-2.6s2.4,1,2.4,2.6C61.2,27.5,60.1,28.6,58.8,28.6z M47.7,23.1v1.8H52c-0.1,1-0.5,1.8-1,2.3c-0.6,0.6-1.6,1.3-3.3,1.3
		c-2.7,0-4.7-2.1-4.7-4.8s2.1-4.8,4.7-4.8c1.4,0,2.5,0.6,3.3,1.3l1.3-1.3c-1.1-1-2.5-1.8-4.5-1.8c-3.6,0-6.7,3-6.7,6.6
		s3.1,6.6,6.7,6.6c2,0,3.4-0.6,4.6-1.9c1.2-1.2,1.6-2.9,1.6-4.2c0-0.4,0-0.8-0.1-1.1C53.9,23.1,47.7,23.1,47.7,23.1z M93.1,24.5
		c-0.4-1-1.4-2.7-3.6-2.7s-4,1.7-4,4.3c0,2.4,1.8,4.3,4.2,4.3c1.9,0,3.1-1.2,3.5-1.9l-1.4-1c-0.5,0.7-1.1,1.2-2.1,1.2
		s-1.6-0.4-2.1-1.3l5.7-2.4L93.1,24.5z M87.3,25.9c0-1.6,1.3-2.5,2.2-2.5c0.7,0,1.4,0.4,1.6,0.9L87.3,25.9z M82.6,30h1.9V17.5h-1.9
		V30z M79.6,22.7L79.6,22.7c-0.5-0.5-1.3-1-2.3-1c-2.1,0-4.1,1.9-4.1,4.3c0,2.4,1.9,4.2,4.1,4.2c1,0,1.8-0.5,2.2-1h0.1v0.6
		c0,1.6-0.9,2.5-2.3,2.5c-1.1,0-1.9-0.8-2.1-1.5l-1.6,0.7c0.5,1.1,1.7,2.5,3.8,2.5c2.2,0,4-1.3,4-4.4V22h-1.8
		C79.6,22,79.6,22.7,79.6,22.7z M77.4,28.6c-1.3,0-2.4-1.1-2.4-2.6s1.1-2.6,2.4-2.6s2.3,1.1,2.3,2.6C79.7,27.5,78.7,28.6,77.4,28.6z
		 M101.8,17.5h-4.5V30h1.9v-4.7h2.6c2.1,0,4.1-1.5,4.1-3.9S103.9,17.5,101.8,17.5z M101.9,23.5h-2.7v-4.3h2.7c1.4,0,2.2,1.2,2.2,2.1
		C104,22.4,103.2,23.5,101.9,23.5z M113.4,21.7c-1.4,0-2.8,0.6-3.3,1.9l1.7,0.7c0.4-0.7,1-0.9,1.7-0.9c1,0,1.9,0.6,2,1.6v0.1
		c-0.3-0.2-1.1-0.5-1.9-0.5c-1.8,0-3.6,1-3.6,2.8c0,1.7,1.5,2.8,3.1,2.8c1.3,0,1.9-0.6,2.4-1.2h0.1v1h1.8v-4.8
		C117.2,23,115.5,21.7,113.4,21.7z M113.2,28.6c-0.6,0-1.5-0.3-1.5-1.1c0-1,1.1-1.3,2-1.3c0.8,0,1.2,0.2,1.7,0.4
		C115.2,27.8,114.2,28.6,113.2,28.6z M123.7,22l-2.1,5.4h-0.1l-2.2-5.4h-2l3.3,7.6l-1.9,4.2h1.9l5.1-11.8H123.7z M106.9,30h1.9V17.5
		h-1.9V30z"/>
	
		<linearGradient id="SVGID_1_" gradientUnits="userSpaceOnUse" x1="21.77" y1="-512.68" x2="4.9876" y2="-529.4624" gradientTransform="matrix(1 0 0 -1 0 -504)">
		<stop  offset="0" style="stop-color:#00A0FF"/>
		<stop  offset="6.574450e-03" style="stop-color:#00A1FF"/>
		<stop  offset="0.2601" style="stop-color:#00BEFF"/>
		<stop  offset="0.5122" style="stop-color:#00D2FF"/>
		<stop  offset="0.7604" style="stop-color:#00DFFF"/>
		<stop  offset="1" style="stop-color:#00E3FF"/>
	</linearGradient>
	<path class="st2" d="M10.4,7.5c-0.3,0.3-0.5,0.8-0.5,1.4V31c0,0.6,0.2,1.1,0.5,1.4l0.1,0.1l12.4-12.4V20v-0.1L10.4,7.5L10.4,7.5z"
		/>
	
		<linearGradient id="SVGID_2_" gradientUnits="userSpaceOnUse" x1="33.8344" y1="-524.05" x2="9.6375" y2="-524.05" gradientTransform="matrix(1 0 0 -1 0 -504)">
		<stop  offset="0" style="stop-color:#FFE000"/>
		<stop  offset="0.4087" style="stop-color:#FFBD00"/>
		<stop  offset="0.7754" style="stop-color:#FFA500"/>
		<stop  offset="1" style="stop-color:#FF9C00"/>
	</linearGradient>
	<path class="st3" d="M27,24.3l-4.1-4.1V20v-0.1l4.1-4.1l0.1,0.1l4.9,2.8c1.4,0.8,1.4,2.1,0,2.9L27,24.3L27,24.3z"/>
	
		<linearGradient id="SVGID_3_" gradientUnits="userSpaceOnUse" x1="24.8155" y1="-526.2845" x2="2.0572" y2="-549.0428" gradientTransform="matrix(1 0 0 -1 0 -504)">
		<stop  offset="0" style="stop-color:#FF3A44"/>
		<stop  offset="1" style="stop-color:#C31162"/>
	</linearGradient>
	<path class="st4" d="M27.1,24.2L22.9,20L10.4,32.5c0.5,0.5,1.2,0.5,2.1,0.1L27.1,24.2"/>
	
		<linearGradient id="SVGID_4_" gradientUnits="userSpaceOnUse" x1="7.2617" y1="-504.2118" x2="17.4243" y2="-514.3743" gradientTransform="matrix(1 0 0 -1 0 -504)">
		<stop  offset="0" style="stop-color:#32A071"/>
		<stop  offset="6.850000e-02" style="stop-color:#2DA771"/>
		<stop  offset="0.4762" style="stop-color:#15CF74"/>
		<stop  offset="0.8009" style="stop-color:#06E775"/>
		<stop  offset="1" style="stop-color:#00F076"/>
	</linearGradient>
	<path class="st5" d="M27.1,15.8L12.5,7.5c-0.9-0.5-1.6-0.4-2.1,0.1L22.9,20L27.1,15.8z"/>
	<path class="st6" d="M27,24.1l-14.5,8.2c-0.8,0.5-1.5,0.4-2,0l0,0l-0.1,0.1l0,0l0.1,0.1l0,0c0.5,0.4,1.2,0.5,2,0L27,24.1L27,24.1z"
		/>
	<path class="st7" d="M10.4,32.3C10.1,32,10,31.5,10,30.9V31c0,0.6,0.2,1.1,0.5,1.4v-0.1C10.5,32.3,10.4,32.3,10.4,32.3z"/>
	<path class="st7" d="M32,21.3l-5,2.8l0.1,0.1L32,21.3c0.7-0.3,1-0.8,1-1.3l0,0C33,20.5,32.6,20.9,32,21.3z"/>
	<path class="st8" d="M12.5,7.6L32,18.7c0.6,0.4,1,0.8,1,1.3l0,0c0-0.5-0.3-1-1-1.4L12.5,7.5C11.1,6.7,10,7.4,10,9v0.1
		C10,7.5,11.1,6.8,12.5,7.6z"/>
	<g>
		<g>
			<path class="st1" d="M41.3,13V7h1.8c0.9,0,1.7,0.3,2.2,0.8c0.6,0.6,0.8,1.3,0.8,2.2c0,0.9-0.3,1.6-0.8,2.2
				C44.7,12.8,44,13,43.1,13H41.3z M42.1,12.3h1.1c0.7,0,1.2-0.2,1.6-0.6c0.4-0.4,0.6-1,0.6-1.7s-0.2-1.3-0.6-1.7
				c-0.4-0.4-1-0.6-1.6-0.6h-1.1V12.3z"/>
			<path class="st1" d="M43.1,13.1h-1.9V6.9h1.9c0.9,0,1.7,0.3,2.3,0.8c0.6,0.6,0.8,1.3,0.8,2.3c0,0.9-0.3,1.6-0.8,2.3
				C44.8,12.8,44.1,13.1,43.1,13.1z M41.4,12.9h1.7c1,0,1.6-0.2,2.1-0.8c0.5-0.6,0.8-1.3,0.8-2.1c0-1-0.2-1.6-0.8-2.1
				c-0.5-0.5-1.3-0.8-2.1-0.8h-1.7V12.9z M43.2,12.4H42V7.6h1.2c0.7,0,1.3,0.2,1.7,0.6c0.4,0.4,0.6,1,0.6,1.8s-0.2,1.4-0.6,1.8
				C44.4,12.2,43.9,12.4,43.2,12.4z M42.2,12.2h1c0.7,0,1.1-0.2,1.5-0.6c0.4-0.4,0.6-0.9,0.6-1.6s-0.2-1.3-0.6-1.6
				c-0.4-0.4-0.9-0.6-1.5-0.6h-1V12.2z"/>
		</g>
		<g>
			<path class="st1" d="M47.3,13V7h0.8v6H47.3z"/>
			<path class="st1" d="M48.2,13.1h-1V6.9h1V13.1z M47.4,12.9H48V7.1h-0.6V12.9z"/>
		</g>
		<g>
			<path class="st1" d="M51.1,13.1c-0.4,0-0.9-0.1-1.3-0.4c-0.4-0.3-0.7-0.7-0.8-1.2l0.7-0.3c0.1,0.3,0.3,0.6,0.5,0.8
				c0.3,0.2,0.6,0.3,0.9,0.3c0.3,0,0.6-0.1,0.9-0.3c0.2-0.2,0.4-0.4,0.4-0.7c0-0.3-0.1-0.6-0.4-0.8c-0.2-0.2-0.6-0.4-1.1-0.5
				c-0.5-0.2-0.9-0.4-1.2-0.6c-0.3-0.3-0.4-0.6-0.4-1s0.2-0.8,0.5-1.1c0.3-0.3,0.8-0.5,1.3-0.5s0.9,0.1,1.2,0.4s0.5,0.5,0.6,0.8
				l-0.7,0.3c-0.1-0.2-0.2-0.4-0.4-0.5c-0.2-0.2-0.5-0.2-0.8-0.2s-0.5,0.1-0.8,0.2C50.1,8,50,8.2,50,8.5c0,0.2,0.1,0.4,0.3,0.6
				s0.5,0.3,0.9,0.4c0.3,0.1,0.5,0.2,0.7,0.3c0.2,0.1,0.4,0.2,0.6,0.4c0.2,0.1,0.4,0.3,0.5,0.6c0.1,0.2,0.2,0.5,0.2,0.8
				s-0.1,0.6-0.2,0.8c-0.1,0.2-0.3,0.4-0.5,0.5s-0.4,0.2-0.6,0.3C51.6,13.1,51.4,13.1,51.1,13.1z"/>
			<path class="st1" d="M51.9,13.3L51.9,13.3c-0.3-0.1-0.5-0.1-0.8-0.1c-0.3,0-0.9-0.1-1.4-0.4c-0.5-0.3-0.7-0.8-0.8-1.3l0-0.1
				l0.9-0.4l0,0.1c0.1,0.3,0.3,0.6,0.5,0.8c0.5,0.4,1.1,0.4,1.7,0c0.2-0.2,0.4-0.4,0.4-0.6c0-0.3-0.1-0.6-0.4-0.7
				c-0.2-0.2-0.5-0.4-1.1-0.5c-0.5-0.2-0.9-0.4-1.2-0.6c-0.3-0.3-0.4-0.6-0.4-1.1c0-0.4,0.2-0.8,0.5-1.2c0.3-0.3,0.9-0.5,1.4-0.5
				c0.6,0,1,0.1,1.3,0.4C52.7,7.4,52.9,7.6,53,8l0,0.1l-0.9,0.4l0-0.1C52,8.2,51.9,8,51.8,7.9l0,0c-0.2-0.2-0.4-0.2-0.7-0.2
				c-0.2,0-0.4,0.1-0.6,0.1c0,0-0.1,0-0.1,0c-0.1,0.2-0.2,0.4-0.2,0.6c0,0.2,0.1,0.3,0.3,0.5c0.2,0.2,0.4,0.3,0.9,0.4
				c0.3,0.1,0.5,0.2,0.7,0.3c0.2,0.1,0.4,0.2,0.6,0.4c0.2,0.1,0.4,0.4,0.5,0.6c0.1,0.1,0.2,0.4,0.2,0.8c0,0.4-0.1,0.7-0.2,0.8
				c-0.1,0.2-0.3,0.4-0.5,0.5L51.9,13.3z M49.1,11.6c0.1,0.4,0.4,0.8,0.7,1.1c0.4,0.3,1,0.4,1.2,0.4c0.3,0,0.5,0,0.8,0.1l0.6-0.3
				c0.2-0.1,0.4-0.3,0.5-0.5c0.1-0.2,0.2-0.5,0.2-0.8s-0.1-0.5-0.2-0.8c-0.1-0.3-0.3-0.5-0.5-0.6l0,0c-0.2-0.2-0.4-0.3-0.6-0.4
				c-0.2-0.1-0.4-0.2-0.7-0.3c-0.4-0.1-0.7-0.2-0.9-0.4C50,9,49.9,8.7,49.9,8.5c0-0.3,0.1-0.5,0.2-0.7l0,0l0,0c0.1,0,0.1,0,0.2-0.1
				c0.2-0.1,0.4-0.1,0.7-0.1c0.3,0,0.6,0,0.9,0.2C52,7.8,52.2,8,52.2,8.2l0.5-0.2c-0.1-0.2-0.3-0.4-0.5-0.7C52,7,51.6,6.9,51.1,6.9
				c-0.5,0-0.9,0.2-1.2,0.5c-0.3,0.3-0.5,0.7-0.5,1c0,0.4,0.1,0.7,0.4,0.9c0.3,0.2,0.7,0.4,1.2,0.6c0.5,0.1,0.9,0.3,1.1,0.5
				c0.3,0.2,0.4,0.5,0.4,0.9c0,0.3-0.2,0.6-0.4,0.8c-0.7,0.4-1.3,0.4-1.9,0c-0.2-0.2-0.4-0.5-0.5-0.7L49.1,11.6z"/>
		</g>
		<g>
			<path class="st1" d="M55,13h-0.8V7h2c0.5,0,0.9,0.2,1.3,0.5s0.6,0.8,0.6,1.3s-0.2,0.9-0.6,1.3c-0.4,0.3-0.8,0.5-1.3,0.5H55V13z
				 M55,9.8h1.3c0.3,0,0.6-0.1,0.8-0.3c0.2-0.2,0.3-0.5,0.3-0.7c0-0.3-0.1-0.5-0.3-0.7c-0.2-0.2-0.5-0.3-0.8-0.3H55V9.8z"/>
			<path class="st1" d="M55.1,13.1h-1V6.9h2.1c0.5,0,0.9,0.2,1.4,0.5c0.4,0.3,0.6,0.8,0.6,1.4c0,0.5-0.2,0.9-0.6,1.4
				c-0.5,0.4-0.9,0.5-1.4,0.5h-1.1V13.1z M54.3,12.9h0.6v-2.4h1.3c0.4,0,0.8-0.1,1.2-0.5C57.8,9.6,58,9.3,58,8.8
				c0-0.5-0.2-1-0.6-1.2c-0.4-0.3-0.8-0.5-1.2-0.5h-1.9V12.9z M56.3,9.9h-1.4V7.7h1.4c0.3,0,0.7,0.1,0.9,0.3
				c0.2,0.2,0.3,0.5,0.3,0.8c0,0.2-0.1,0.5-0.3,0.8C57,9.8,56.6,9.9,56.3,9.9z M55.1,9.7h1.2c0.3,0,0.6-0.1,0.7-0.3
				c0.2-0.2,0.3-0.5,0.3-0.6c0-0.3-0.1-0.4-0.3-0.6c-0.2-0.2-0.4-0.3-0.7-0.3h-1.2V9.7z"/>
		</g>
		<g>
			<path class="st1" d="M64,12.2c-0.6,0.6-1.3,0.9-2.2,0.9c-0.9,0-1.6-0.3-2.2-0.9s-0.9-1.3-0.9-2.2s0.3-1.6,0.9-2.2
				s1.3-0.9,2.2-0.9c0.9,0,1.6,0.3,2.2,0.9s0.9,1.3,0.9,2.2C64.9,10.9,64.6,11.6,64,12.2z M60.2,11.7c0.4,0.4,1,0.7,1.6,0.7
				s1.2-0.2,1.6-0.7c0.4-0.4,0.7-1,0.7-1.7s-0.2-1.3-0.7-1.7c-0.4-0.4-1-0.7-1.6-0.7s-1.2,0.2-1.6,0.7c-0.4,0.4-0.7,1-0.7,1.7
				S59.8,11.3,60.2,11.7z"/>
			<path class="st1" d="M61.8,13.2c-0.9,0-1.6-0.3-2.3-0.9c-0.6-0.6-0.9-1.4-0.9-2.3s0.3-1.6,0.9-2.3c0.6-0.6,1.4-0.9,2.3-0.9
				c0.9,0,1.6,0.3,2.3,0.9C64.7,8.4,65,9.1,65,10s-0.3,1.6-0.9,2.3l0,0C63.4,12.9,62.7,13.2,61.8,13.2z M61.8,7
				c-0.9,0-1.5,0.3-2.1,0.9c-0.6,0.6-0.9,1.3-0.9,2.1s0.3,1.5,0.9,2.1c0.6,0.6,1.3,0.9,2.1,0.9c0.9,0,1.5-0.3,2.1-0.9l0,0
				c0.6-0.6,0.9-1.3,0.9-2.1s-0.3-1.5-0.9-2.1C63.3,7.3,62.7,7,61.8,7z M61.8,12.5c-0.6,0-1.2-0.3-1.7-0.7c-0.5-0.5-0.7-1.1-0.7-1.8
				s0.3-1.3,0.7-1.8c0.4-0.5,1-0.7,1.7-0.7c0.6,0,1.2,0.3,1.7,0.7c0.5,0.4,0.7,1,0.7,1.8c0,0.7-0.3,1.3-0.7,1.8
				C63.1,12.2,62.5,12.5,61.8,12.5z M61.8,7.7c-0.6,0-1.2,0.2-1.5,0.7c-0.4,0.4-0.7,1-0.7,1.6s0.2,1.2,0.7,1.6
				c0.4,0.4,1,0.7,1.5,0.7c0.6,0,1.2-0.2,1.5-0.7c0.4-0.4,0.7-1,0.7-1.6c0-0.7-0.2-1.3-0.7-1.6C62.9,8,62.3,7.7,61.8,7.7z"/>
		</g>
		<g>
			<path class="st1" d="M66,13V7h0.9l2.9,4.7l0,0v-1.2V7h0.8v6h-0.8l-3.1-4.9l0,0v1.2V13H66z"/>
			<path class="st1" d="M70.7,13.1h-1l0,0l-2.9-4.6v4.7h-0.9V6.9H67l2.7,4.4V6.9h1V13.1z M69.9,12.9h0.6V7.1h-0.6v5l-3.1-5h-0.7v5.8
				h0.5V7.8L69.9,12.9z"/>
		</g>
		<g>
			<path class="st1" d="M72,13V7h0.8v6H72z M72.7,6.5H72l0.4-1.1h0.8L72.7,6.5z"/>
			<path class="st1" d="M72.9,13.1h-1V6.9h1V13.1z M72.1,12.9h0.6V7.1h-0.6V12.9z M72.8,6.6h-0.9l0.5-1.3h1L72.8,6.6z M72.1,6.4h0.5
				L73,5.5h-0.6L72.1,6.4z"/>
		</g>
		<g>
			<path class="st1" d="M75.6,13l-2.1-6h0.9l1.6,4.9l0,0L77.7,7h0.9l-2.2,6H75.6z"/>
			<path class="st1" d="M76.5,13.1h-0.9l-2.2-6.2h1.1l1.5,4.7l1.6-4.7h1.1l0,0.1L76.5,13.1z M75.7,12.9h0.7l2.1-5.8h-0.7L76,12.2
				l-1.7-5.1h-0.7L75.7,12.9z"/>
		</g>
		<g>
			<path class="st1" d="M83,7.7h-2.7v1.9h2.5v0.7h-2.5v1.9H83V13h-3.5V7H83V7.7z"/>
			<path class="st1" d="M83.1,13.1h-3.7V6.9h3.7v0.9h-2.7v1.7h2.5v0.9h-2.5v1.7h2.7V13.1z M79.6,12.9h3.3v-0.6h-2.7v-2.1h2.5V9.7
				h-2.5V7.6h2.7V7.1h-3.3V12.9z"/>
		</g>
		<g>
			<path class="st1" d="M84.2,13V7H85v5.3h2.6V13H84.2z"/>
			<path class="st1" d="M87.7,13.1h-3.6V6.9h1v5.3h2.6V13.1z M84.3,12.9h3.2v-0.5h-2.6V7.1h-0.6V12.9z"/>
		</g>
		<g>
			<path class="st1" d="M90.6,13V7h0.9l2.9,4.7l0,0v-1.2V7h0.8v6h-0.8l-3.1-4.9l0,0v1.2V13H90.6z"/>
			<path class="st1" d="M95.3,13.1h-1l0,0l-2.9-4.6v4.7h-0.9V6.9h1.1l2.7,4.4V6.9h1V13.1z M94.5,12.9h0.6V7.1h-0.6v5l-3.1-5h-0.7
				v5.8h0.5V7.8L94.5,12.9z"/>
		</g>
		<g>
			<path class="st1" d="M101.5,12.2c-0.6,0.6-1.3,0.9-2.2,0.9c-0.9,0-1.6-0.3-2.2-0.9s-0.9-1.3-0.9-2.2s0.3-1.6,0.9-2.2
				s1.3-0.9,2.2-0.9c0.9,0,1.6,0.3,2.2,0.9s0.9,1.3,0.9,2.2C102.3,10.9,102,11.6,101.5,12.2z M97.6,11.7c0.4,0.4,1,0.7,1.6,0.7
				s1.2-0.2,1.6-0.7c0.4-0.4,0.7-1,0.7-1.7s-0.2-1.3-0.7-1.7c-0.4-0.4-1-0.7-1.6-0.7S98,7.8,97.6,8.3c-0.4,0.4-0.7,1-0.7,1.7
				S97.2,11.3,97.6,11.7z"/>
			<path class="st1" d="M99.3,13.2c-0.9,0-1.6-0.3-2.3-0.9c-0.6-0.6-0.9-1.4-0.9-2.3s0.3-1.6,0.9-2.3c0.6-0.6,1.4-0.9,2.3-0.9
				c0.9,0,1.6,0.3,2.3,0.9c0.6,0.6,0.9,1.4,0.9,2.3c-0.1,0.9-0.4,1.6-0.9,2.3l0,0C100.9,12.9,100.2,13.2,99.3,13.2z M99.3,7
				c-0.9,0-1.5,0.3-2.1,0.9c-0.6,0.6-0.9,1.3-0.9,2.1s0.3,1.5,0.9,2.1c0.6,0.6,1.3,0.9,2.1,0.9s1.5-0.3,2.1-0.9
				c0.5-0.6,0.8-1.3,0.9-2.1c0-0.8-0.3-1.5-0.9-2.1C100.8,7.3,100.2,7,99.3,7z M99.2,12.5c-0.6,0-1.2-0.3-1.7-0.7l0,0
				c-0.5-0.5-0.7-1.1-0.7-1.8s0.3-1.3,0.7-1.8c0.4-0.5,1-0.7,1.7-0.7c0.6,0,1.2,0.3,1.7,0.7c0.5,0.4,0.7,1,0.7,1.8
				c0,0.7-0.3,1.3-0.7,1.8C100.5,12.2,99.9,12.5,99.2,12.5z M97.7,11.6c0.4,0.4,1,0.7,1.5,0.7c0.6,0,1.2-0.2,1.5-0.7
				c0.4-0.4,0.7-1,0.7-1.6c0-0.7-0.2-1.3-0.7-1.6c-0.4-0.4-1-0.7-1.5-0.7c-0.6,0-1.2,0.2-1.5,0.7C97.2,8.8,97,9.4,97,10
				S97.2,11.2,97.7,11.6z"/>
		</g>
	</g>
</g>
</svg>
